<svg version="1.0" xmlns="http://www.w3.org/2000/svg" width="500" height="500"><style>@media (prefers-color-scheme:dark){.a{fill:#f0f0f0}}</style><g fill="none"><path class="a" fill="#0f0f0f" d="M41 248.9V357h42c45.9 0 50.4-.4 64.6-5.9 14.9-5.8 31.7-19.2 41.9-33.5 6.1-8.6 12.8-22.3 16.2-33.2 2.7-8.8 2.7-9.3 2.7-35.4 0-26.1 0-26.6-2.7-35.4-10.8-34.9-35.1-60.1-67.2-69.9-6.6-2-9.5-2.1-52.2-2.5l-45.3-.3v108zm97.5-92.7c29.6 10 52.1 37.8 58 71.7 1.9 10.7 1.9 31.5 0 42.2-5.9 33.9-27.3 60.5-57.6 71.6l-7.4 2.7-39.2.4-39.3.3V152.9l38.8.3 38.7.3 8 2.7zM235 249.5V358h73v-12h-62V141h-11v108.5zM324 249v108h11v-50.3c0-43.2.2-50.6 1.5-52.3 1.4-1.8 4.2.8 53.3 50.4l51.7 52.3 8.5-.1h8.5L423 321.2c-19.5-19.6-44.7-45-55.9-56.3l-20.3-20.6 51.7-51.4 51.7-51.4-8.3-.3-8.3-.3-48.6 48.6c-26.7 26.7-48.8 48.5-49.3 48.5-.4 0-.7-21.8-.7-48.5V141h-11v108z"/></g></svg>