<svg version="1.0" xmlns="http://www.w3.org/2000/svg" width="512" height="512">
    <style>@media (prefers-color-scheme:dark){.a{fill:#f6f6f6}}</style>
    <g transform="translate(0.000000,512.000000) scale(0.100000,-0.100000)" class="a" fill="#070707" stroke="none">
        <path d="M310 5098 c-1 -29 402 -4572 406 -4576 1 -2 415 -120 920 -263 l919
        -260 923 260 c508 143 925 261 926 263 4 4 407 4547 406 4576 l0 22 -2250 0
        -2250 0 0 -22z m2250 -613 c0 -8 -34 -145 -76 -303 -41 -158 -80 -304 -85
        -324 l-10 -38 -394 0 c-309 0 -395 -3 -395 -12 -1 -24 51 -623 56 -655 l5 -33
        269 0 c210 0 270 -3 270 -12 0 -7 -40 -164 -88 -348 l-88 -335 -152 -3 -152
        -3 0 -26 c0 -15 16 -212 36 -438 l36 -412 -86 -328 c-47 -180 -87 -329 -90
        -332 -2 -2 -109 25 -238 60 l-233 64 -146 1684 c-81 926 -149 1712 -152 1747
        l-6 62 859 0 c760 0 860 -2 860 -15z m1710 -7 c0 -72 -300 -3462 -307 -3468
        -4 -4 -322 -94 -707 -200 l-698 -192 -302 82 c-165 46 -304 86 -308 89 -7 6
        152 638 166 659 3 5 103 -17 221 -49 l216 -59 377 102 c207 55 379 102 380
        104 2 1 23 199 46 438 l42 436 -513 0 c-282 0 -513 3 -513 7 0 9 158 617 171
        661 l11 32 454 0 454 0 0 28 c1 15 14 169 29 342 15 173 26 318 24 323 -2 4
        -177 7 -389 7 -283 0 -384 3 -384 12 0 9 148 590 166 651 5 16 46 17 685 17
        l679 0 0 -22z"/>
    </g>
</svg>
